[img]http://img809.imageshack.us/img809/7369/promcz.jpg[/img]
[code]
General:
Complete name                    : Prom 2011 DVDRIP XVID AC3 - SCRON.avi
Format                           : AVI
Format/Info                      : Audio Video Interleave
Format profile                   : OpenDML
Format settings                  : rec
File size                        : 1.17 GiB
Duration                         : 1h 39mn
Overall bit rate                 : 1 684 Kbps 

Video:
ID                               : 0
Format                           : MPEG-4 Visual
Format profile                   : Advanced Simple@L5
Format settings, BVOP            : 2
Format settings, QPel            : No
Format settings, GMC             : No warppoints
Format settings, Matrix          : Default (H.263)
Codec ID                         : XVID
Codec ID/Hint                    : XviD
Duration                         : 1h 39mn
Bit rate                         : 1 230 Kbps
Width                            : 720 pixels
Height                           : 400 pixels
Display aspect ratio             : 16:9
Frame rate                       : 25.000 fps
Color space                      : YUV
Chroma subsampling               : 4:2:0
Bit depth                        : 8 bits
Scan type                        : Progressive
Compression mode                 : Lossy
Bits/(Pixel*Frame)               : 0.171
Stream size                      : 876 MiB (73%) 

Audio 1:
ID                               : 1
Format                           : AC-3
Format/Info                      : Audio Coding 3
Mode extension                   : CM (complete main)
Codec ID                         : 2000
Duration                         : 1h 39mn
Bit rate mode                    : Constant
Bit rate                         : 448 Kbps
Channel(s)                       : 2 channels
Channel positions                : Front: L R
Sampling rate                    : 48.0 KHz
Bit depth                        : 16 bits
Compression mode                 : Lossy
Stream size                      : 319 MiB (27%)
Alignment                        : Aligned on interleaves
Interleave, duration             : 64 ms (1.60 video frames)
Interleave, preload duration     : 192 ms 




Cast:
Aimee Teegarden   Nova Prescott 
Thomas McDonell   Jesse Richter 
DeVaughn Nixon  Tyler Barso 
Danielle Campbell  Simone Daniels 
Yin Chang   Mei Kwan 
Jared Kusnitz Justin Wexler 
Nolan Sotillo Lucas Arnaz 
Cameron Monaghan   Corey Doyle 
Kylie Bunbury Jordan Lundley 
Joe Adler   Rolo 
Janelle Ortiz Ali Gomez 
Jonathan Keltz Brandon Roberts 
Nicholas Braun Lloyd Taylor 
Raini Rodriguez   Tess Torres 
Christine Elise   Sandra Richter (as Christine Elise McCarthy) 

SOURCE
Video : Prom.2011.PAL.DVDR-TDP
Audio : Prom.2011.PAL.DVDR-TDP

IMDB : http://www.imdb.com/title/tt1604171/ 

SCR0N is looking for silver supplier,cammers,syncers,Audio and anymore stuff.....
If yall got anything to offer...holler us at scron@hushmail.com 
[/code]
Screens:
[img]http://img638.imageshack.us/img638/6043/39493095.jpg[/img]
[img]http://img69.imageshack.us/img69/222/99624371.jpg[/img]
[img]http://img718.imageshack.us/img718/3755/50746786.jpg[/img]
[img]http://img849.imageshack.us/img849/1061/79208855.jpg[/img]
[img]http://img143.imageshack.us/img143/8558/46261414.jpg[/img]
[img]http://img109.imageshack.us/img109/9316/88739100.jpg[/img]